<?xml version="1.0" encoding="utf-8"?>
<!-- Generator: Adobe Illustrator 27.1.1, SVG Export Plug-In . SVG Version: 6.00 Build 0)  -->
<svg version="1.1" id="Layer_1" xmlns="http://www.w3.org/2000/svg" xmlns:xlink="http://www.w3.org/1999/xlink" x="0px" y="0px"
	 viewBox="0 0 32 32" style="enable-background:new 0 0 32 32;" xml:space="preserve">
<style type="text/css">
	.st0{display:none;fill:#FFFFFF;}
	.st1{fill:#FFFFFF;}
</style>
<g>
	<path class="st0" d="M31.78,32.37c-10.67,0-21.33,0-32,0c0-10.72,0-21.45,0-32.17c10.67,0,21.33,0,32,0
		C31.78,10.92,31.78,21.64,31.78,32.37z M4.37,15.98c0-3.54,0.02-6.89-0.02-10.23C4.35,5.08,4.62,4.9,5.2,4.78
		c3.59-0.74,7.17-1.51,10.76-2.25c0.42-0.09,0.9-0.07,1.33,0.02c3.53,0.73,7.06,1.5,10.59,2.22c0.62,0.13,0.91,0.33,0.9,1.03
		c-0.04,3.4-0.02,6.81-0.01,10.21c0.01,3.18-1.37,5.72-3.58,7.89c-2.39,2.33-5.36,3.78-8.25,5.36c-0.22,0.12-0.67,0.04-0.92-0.1
		c-1.87-1.06-3.75-2.12-5.58-3.27C5.86,23.01,2.87,19,1.9,13.59C1.85,13.74,1.84,13.87,1.84,14c0,0.2-0.01,0.4,0.01,0.6
		c0.3,3.27,1.47,6.21,3.54,8.75c2.92,3.59,6.9,5.74,10.9,7.86c0.19,0.1,0.56,0.03,0.78-0.08c1.13-0.59,2.25-1.2,3.36-1.83
		c2.6-1.48,5.13-3.05,7.08-5.38c1.52-1.82,2.74-3.85,2.84-6.23c0.18-4.5,0.13-9.01,0.13-13.52c0-0.23-0.31-0.61-0.54-0.66
		c-3.69-0.82-7.38-1.62-11.08-2.39c-1.27-0.27-2.5-0.5-3.86-0.15C12.15,1.69,9.26,2.19,6.4,2.8C5.17,3.06,3.94,3.36,2.73,3.63
		C2.36,9.41,2.89,13.58,4.37,15.98z M23.7,7.75c0.02,0.38,0.04,0.63,0.06,0.87c0.09,1.13-0.49,2.17-0.34,3.36
		c0.13,0.96-0.2,1.97-0.33,2.99c0.67,0,1.23,0,1.82,0c0.01-1.49-0.66-2.91-0.15-4.36c0.02-0.07-0.02-0.17-0.04-0.25
		c-0.13-0.61-0.29-1.21-0.4-1.83c-0.1-0.59-0.21-1.23,0.96-1.26c-0.44-0.21-0.6-0.32-0.78-0.38c-2.44-0.82-4.89-1.65-7.34-2.44
		c-0.35-0.11-0.79-0.12-1.13-0.01c-2.43,0.77-4.85,1.58-7.27,2.39C8.55,6.92,8.36,7.06,8.06,7.22c2.75,1.03,5.37,2.02,8,2.99
		c0.25,0.09,0.56,0.15,0.81,0.07c0.7-0.21,1.39-0.49,2.08-0.75C20.5,8.95,22.05,8.37,23.7,7.75z M8.75,19
		c2.8,0.39,5.21,1.48,7.41,3.43c0-2.57,0.02-4.94-0.02-7.3c0-0.27-0.3-0.59-0.54-0.8c-1.96-1.66-4.31-2.41-6.85-2.87
		C8.75,14,8.75,16.47,8.75,19z M24.4,19.03c0-1.14,0-2.22,0-3.38c-0.72,0-1.35,0-2.04,0c0.17-1.33,0.33-2.56,0.5-3.86
		c-1.97,0.55-3.71,1.28-5.22,2.48c-0.42,0.33-0.6,0.67-0.59,1.22c0.03,1.95,0.01,3.91,0.01,5.87c0,0.29,0,0.58,0,1.04
		C19.26,20.48,21.62,19.38,24.4,19.03z M2.4,12.23c-0.07,2.18,0.8,5.11,2.36,7.48c2.96,4.49,7.04,7.07,12.56,7
		c2.48-0.03,4.68-0.92,6.59-2.5C13.9,28.36,4.3,21.59,2.4,12.23z M11.39,9.35c0,0.48,0.04,0.8-0.01,1.1
		c-0.11,0.66,0.2,0.92,0.78,1.15c1.34,0.54,2.64,1.19,3.96,1.76c0.24,0.1,0.6,0.16,0.82,0.06c1.48-0.64,2.95-1.31,4.41-2
		c0.18-0.09,0.39-0.33,0.41-0.52c0.06-0.46,0.02-0.94,0.02-1.54c-1.48,0.56-2.86,1.05-4.21,1.61c-0.71,0.29-1.33,0.27-2.02-0.02
		C14.24,10.39,12.88,9.91,11.39,9.35z M15.89,23.52c-0.18-0.23-0.34-0.49-0.55-0.7c-1.78-1.76-3.95-2.74-6.4-3.05
		c-0.78-0.1-0.99-0.34-0.97-1.08c0.04-2.17,0.02-4.35,0.02-6.57c-0.33-0.05-0.6-0.08-0.92-0.13c0,2.8,0,5.53,0,8.29
		C10.31,20.63,13.17,21.84,15.89,23.52z M26.09,11.94c-0.34,0.07-0.57,0.11-0.85,0.17c0.12,0.93,0.24,1.79,0.33,2.66
		c0.03,0.28,0.09,0.76-0.01,0.8c-0.59,0.25-0.33,0.72-0.35,1.09c-0.04,0.74-0.04,1.47-0.01,2.21c0.03,0.6-0.17,0.81-0.81,0.89
		c-2.52,0.3-4.76,1.26-6.59,3.06c-0.17,0.17-0.29,0.4-0.44,0.6c2.73-1.66,5.57-2.78,8.71-3.13C26.09,17.5,26.09,14.79,26.09,11.94z
		 M2.08,20.57c0.12,2.13,3.49,5.78,5.85,6.33C6.05,24.86,3.99,22.63,2.08,20.57z"/>
	<path class="st1" d="M4.37,15.98c-1.48-2.4-2.02-6.57-1.64-12.35C3.94,3.36,5.17,3.06,6.4,2.8c2.86-0.61,5.75-1.1,8.58-1.83
		c1.36-0.35,2.59-0.11,3.86,0.15c3.7,0.77,7.4,1.57,11.08,2.39c0.23,0.05,0.54,0.43,0.54,0.66c-0.01,4.51,0.05,9.02-0.13,13.52
		c-0.1,2.37-1.32,4.41-2.84,6.23c-1.95,2.33-4.48,3.9-7.08,5.38c-1.11,0.63-2.23,1.25-3.36,1.83c-0.22,0.11-0.58,0.18-0.78,0.08
		c-4-2.11-7.98-4.27-10.9-7.86c-2.07-2.55-3.24-5.48-3.54-8.75c-0.02-0.2-0.01-0.4-0.01-0.6c0-0.13,0.02-0.27,0.06-0.41
		c0.97,5.4,3.96,9.42,8.56,12.3c1.83,1.14,3.7,2.2,5.58,3.27c0.25,0.14,0.69,0.23,0.92,0.1c2.88-1.58,5.86-3.03,8.25-5.36
		c2.22-2.16,3.6-4.71,3.58-7.89c-0.01-3.4-0.03-6.81,0.01-10.21c0.01-0.71-0.28-0.9-0.9-1.03c-3.53-0.72-7.06-1.49-10.59-2.22
		c-0.43-0.09-0.9-0.11-1.33-0.02C12.37,3.26,8.79,4.04,5.2,4.78C4.62,4.9,4.35,5.08,4.35,5.75C4.4,9.1,4.37,12.44,4.37,15.98z"/>
	<path class="st1" d="M23.7,7.75c-1.64,0.62-3.2,1.2-4.75,1.78c-0.69,0.26-1.37,0.54-2.08,0.75c-0.24,0.07-0.56,0.02-0.81-0.07
		c-2.63-0.97-5.25-1.96-8-2.99c0.3-0.16,0.49-0.3,0.71-0.38c2.42-0.81,4.84-1.62,7.27-2.39c0.34-0.11,0.79-0.1,1.13,0.01
		c2.45,0.79,4.9,1.62,7.34,2.44c0.18,0.06,0.34,0.16,0.78,0.38c-1.17,0.03-1.05,0.67-0.96,1.26c0.1,0.61,0.26,1.22,0.4,1.83
		c0.02,0.08,0.06,0.18,0.04,0.25c-0.51,1.45,0.16,2.87,0.15,4.36c-0.59,0-1.15,0-1.82,0c0.13-1.01,0.45-2.03,0.33-2.99
		c-0.16-1.18,0.43-2.22,0.34-3.36C23.74,8.38,23.72,8.13,23.7,7.75z"/>
	<path class="st1" d="M8.75,19c0-2.53,0-5.01,0-7.54c2.55,0.47,4.89,1.22,6.85,2.87c0.24,0.2,0.53,0.52,0.54,0.8
		c0.04,2.36,0.02,4.73,0.02,7.3C13.96,20.48,11.55,19.4,8.75,19z"/>
	<path class="st1" d="M24.4,19.03c-2.78,0.35-5.13,1.45-7.34,3.35c0-0.46,0-0.75,0-1.04c0-1.96,0.02-3.91-0.01-5.87
		c-0.01-0.54,0.17-0.89,0.59-1.22c1.52-1.2,3.25-1.93,5.22-2.48c-0.17,1.3-0.33,2.54-0.5,3.86c0.69,0,1.33,0,2.04,0
		C24.4,16.8,24.4,17.88,24.4,19.03z"/>
	<path class="st1" d="M2.4,12.23c1.9,9.36,11.5,16.13,21.52,11.98c-1.91,1.57-4.11,2.46-6.59,2.5c-5.52,0.07-9.61-2.51-12.56-7
		C3.2,17.34,2.33,14.41,2.4,12.23z"/>
	<path class="st1" d="M11.39,9.35c1.48,0.56,2.84,1.04,4.17,1.59c0.7,0.29,1.32,0.32,2.02,0.02c1.35-0.56,2.73-1.05,4.21-1.61
		c0,0.6,0.04,1.08-0.02,1.54c-0.02,0.19-0.23,0.43-0.41,0.52c-1.46,0.69-2.93,1.36-4.41,2c-0.23,0.1-0.58,0.05-0.82-0.06
		c-1.33-0.57-2.62-1.22-3.96-1.76c-0.58-0.23-0.9-0.49-0.78-1.15C11.44,10.14,11.39,9.83,11.39,9.35z"/>
	<path class="st1" d="M15.89,23.52c-2.72-1.68-5.58-2.89-8.82-3.23c0-2.76,0-5.49,0-8.29c0.32,0.04,0.59,0.08,0.92,0.13
		c0,2.22,0.03,4.39-0.02,6.57c-0.02,0.74,0.19,0.98,0.97,1.08c2.45,0.31,4.63,1.29,6.4,3.05C15.55,23.03,15.71,23.29,15.89,23.52z"
		/>
	<path class="st1" d="M26.09,11.94c0,2.85,0,5.56,0,8.34c-3.14,0.35-5.98,1.47-8.71,3.13c0.14-0.2,0.26-0.43,0.44-0.6
		c1.83-1.8,4.07-2.76,6.59-3.06c0.64-0.08,0.83-0.29,0.81-0.89c-0.03-0.74-0.03-1.47,0.01-2.21c0.02-0.37-0.25-0.85,0.35-1.09
		c0.1-0.04,0.04-0.53,0.01-0.8c-0.1-0.87-0.22-1.73-0.33-2.66C25.52,12.06,25.75,12.01,26.09,11.94z"/>
	<path class="st1" d="M2.08,20.57c1.91,2.07,3.97,4.29,5.85,6.33C5.57,26.34,2.2,22.7,2.08,20.57z"/>
</g>
</svg>
