<?xml version="1.0" encoding="utf-8"?>
<!-- Generator: Adobe Illustrator 27.1.1, SVG Export Plug-In . SVG Version: 6.00 Build 0)  -->
<svg version="1.1" id="Layer_1" xmlns="http://www.w3.org/2000/svg" xmlns:xlink="http://www.w3.org/1999/xlink" x="0px" y="0px"
	 viewBox="0 0 32 32" style="enable-background:new 0 0 32 32;" xml:space="preserve">
<style type="text/css">
	.st0{display:none;fill:#FFFFFF;}
	.st1{fill:#FFFFFF;}
</style>
<g>
	<path class="st0" d="M32.66,31.53c-11.07,0-22.14,0-33.2,0c0-10.48,0-20.96,0-31.44c11.07,0,22.14,0,33.2,0
		C32.66,10.57,32.66,21.05,32.66,31.53z M10.75,6.35C10.9,6.3,11,6.25,11.1,6.23c1.48-0.32,2.96-0.61,4.43-0.95
		C16.69,5,17.81,4.9,19.01,5.23c1.51,0.42,3.07,0.67,4.61,0.98c0.31,0.06,0.38,0.23,0.37,0.52c-0.01,1.82-0.02,3.65,0,5.47
		c0.02,1.8-0.73,3.24-1.99,4.46c-1.2,1.16-2.68,1.9-4.1,2.73c-0.38,0.22-0.68,0.23-1.04-0.01c-1.38-0.9-2.83-1.7-4.13-2.69
		c-1.85-1.42-2.87-3.39-3.31-5.67c0,2,0.67,3.78,1.92,5.32c1.57,1.94,3.72,3.11,5.87,4.26c0.12,0.06,0.33,0.02,0.46-0.04
		c0.61-0.32,1.22-0.65,1.82-1c1.41-0.81,2.78-1.67,3.83-2.94c0.81-0.98,1.47-2.08,1.52-3.35c0.1-2.47,0.07-4.94,0.07-7.41
		c0-0.11-0.16-0.31-0.27-0.33c-2.06-0.46-4.13-0.89-6.19-1.34c-0.64-0.14-1.24-0.23-1.91-0.06c-1.24,0.32-2.5,0.54-3.75,0.81
		c-0.97,0.21-1.95,0.43-2.94,0.65c0.04,2.27-0.29,4.55,0.9,6.77C10.75,10.27,10.75,8.33,10.75,6.35z M12.83,7.45
		c0,0.04,0,0.07,0,0.11c1.45,0.55,2.89,1.1,4.34,1.63c0.13,0.05,0.3,0.03,0.44-0.01c0.54-0.19,1.06-0.4,1.6-0.6
		c0.67-0.25,1.34-0.49,2-0.73c0.05,0.03,0.1,0.06,0.15,0.1c-0.1,0.44-0.22,0.88-0.31,1.33c-0.02,0.11,0,0.23,0.01,0.35
		c0.01,0.18,0.06,0.36,0.04,0.53c-0.05,0.53-0.13,1.06-0.19,1.6c0.36,0,0.67,0,1.01,0c-0.03-0.19-0.06-0.34-0.07-0.49
		c-0.04-0.51-0.07-1.03-0.11-1.55c-0.02-0.21,0.01-0.45-0.08-0.62c-0.21-0.43-0.07-1.35,0.32-1.62c-1.15-0.39-2.3-0.75-3.42-1.17
		c-0.73-0.28-1.43-0.43-2.16-0.06c-0.15,0.08-0.32,0.11-0.48,0.17C14.89,6.74,13.86,7.09,12.83,7.45z M17.15,15.83
		c0-1.4,0.01-2.68-0.01-3.96c0-0.13-0.1-0.3-0.2-0.39c-1.09-0.95-2.39-1.39-3.81-1.64c0,1.39,0,2.74,0,4.1
		C14.63,14.17,15.95,14.74,17.15,15.83z M20.79,10.02c-1.09,0.31-2.06,0.69-2.86,1.4c-0.15,0.13-0.27,0.38-0.27,0.57
		c-0.03,1.14-0.01,2.28-0.01,3.43c0,0.1,0.02,0.19,0.04,0.35c1.16-1.02,2.46-1.6,3.93-1.8c0-0.62,0-1.21,0-1.84
		c-0.39,0-0.73,0-1.11,0C20.6,11.4,20.69,10.74,20.79,10.02z M21.35,16.79c-4.74,2.11-10.49-0.81-11.67-6.54
		c-0.01,0.23-0.02,0.46,0.02,0.68c0.59,3.51,3.03,6.44,6.59,7.12C18.16,18.41,19.86,17.99,21.35,16.79z M14.65,22.27
		c-0.71-0.43-1.38-0.62-2.12-0.3c-0.42,0.18-0.66,0.49-0.68,0.95c-0.02,0.46,0.15,0.82,0.6,0.99c0.37,0.14,0.77,0.22,1.13,0.38
		c0.15,0.07,0.23,0.28,0.34,0.42c-0.15,0.11-0.31,0.31-0.44,0.3c-0.44-0.05-0.87-0.19-1.39-0.31c-0.07,0.09-0.22,0.27-0.37,0.47
		c0.65,0.58,1.37,0.7,2.14,0.55c0.55-0.11,0.87-0.51,0.9-1.03c0.03-0.59-0.2-0.92-0.81-1.13c-0.26-0.09-0.54-0.14-0.79-0.23
		c-0.22-0.08-0.56-0.17-0.41-0.48c0.08-0.17,0.41-0.31,0.62-0.29c0.29,0.02,0.57,0.19,0.9,0.31C14.38,22.69,14.5,22.51,14.65,22.27z
		 M14.57,8.69c0,0.23,0.02,0.4,0,0.57c-0.06,0.37,0.1,0.53,0.44,0.66c0.73,0.29,1.43,0.64,2.15,0.96c0.12,0.05,0.3,0.09,0.41,0.04
		c0.82-0.35,1.63-0.73,2.43-1.11c0.1-0.05,0.2-0.19,0.21-0.29c0.03-0.25,0.01-0.51,0.01-0.82c-0.63,0.23-1.21,0.4-1.74,0.66
		c-0.69,0.35-1.33,0.42-2.05,0.05C15.85,9.13,15.23,8.94,14.57,8.69z M18.86,25.71c0-0.58-0.02-1.11,0.01-1.63
		c0.02-0.46,0.41-0.71,0.77-0.48c0.17,0.11,0.29,0.4,0.31,0.61c0.04,0.49,0.01,0.98,0.01,1.49c0.27,0,0.49,0,0.75,0
		c0-0.74,0.03-1.44-0.01-2.15c-0.03-0.42-0.32-0.73-0.76-0.72c-0.35,0-0.7,0.12-1.08,0.2c0-0.37,0-0.79,0-1.23
		c-0.29,0-0.53,0-0.79,0c0,1.31,0,2.59,0,3.9C18.31,25.71,18.55,25.71,18.86,25.71z M24.14,24.3c0.12-0.8-0.71-1.52-1.51-1.49
		c-0.91,0.03-1.54,0.59-1.55,1.46c-0.01,0.89,0.6,1.47,1.49,1.52C23.42,25.84,24.26,25.03,24.14,24.3z M28.42,25.77
		c0-0.5,0-0.9,0-1.3c0-0.2,0-0.4-0.02-0.6c-0.07-0.65-0.43-1.01-1.08-1.04c-0.27-0.02-0.56,0-0.83,0.05
		c-0.58,0.1-0.61,0.21-0.29,0.71c1.14-0.15,1.31-0.11,1.37,0.44c-0.68-0.1-1.38-0.23-1.78,0.53c-0.17,0.33-0.1,0.69,0.18,0.93
		c0.5,0.45,1.04,0.35,1.43,0.12C27.8,25.67,28.07,25.72,28.42,25.77z M10.02,25.7c0-0.72,0.03-1.41-0.01-2.1
		c-0.02-0.47-0.4-0.8-0.87-0.78c-0.32,0.01-0.63,0.13-0.94,0.21c-0.2-0.35-0.53-0.16-0.83-0.14c0,0.95,0,1.87,0,2.79
		c0.28,0,0.53,0,0.8,0c0-0.49,0-0.94,0-1.38c0-0.37,0.02-0.74,0.52-0.76c0.4-0.02,0.54,0.18,0.55,0.77c0.01,0.46,0,0.91,0,1.39
		C9.54,25.7,9.76,25.7,10.02,25.7z M4.12,22.87c0,0.7-0.05,1.36,0.01,2.02c0.07,0.7,0.71,1.07,1.36,0.84
		c0.18-0.07,0.34-0.19,0.51-0.28c0.14,0.51,0.51,0.22,0.78,0.28c0-0.97,0-1.9,0-2.83c-0.26,0-0.48,0-0.73,0
		c0,0.55,0.02,1.06-0.01,1.56c-0.02,0.36-0.19,0.62-0.62,0.59C5,25.01,4.93,24.74,4.93,24.4c0-0.5,0-1.01,0-1.53
		C4.64,22.87,4.41,22.87,4.12,22.87z M12.22,10.13c0,1.53,0,3.01,0,4.52c1.75,0.18,3.3,0.84,4.76,1.77
		c-1.07-1.38-2.56-1.93-4.25-2.14c0-1.37,0-2.71,0-4.07C12.55,10.19,12.41,10.16,12.22,10.13z M17.72,23.31
		c-0.75-0.71-1.81-0.65-2.37,0.04c-0.53,0.66-0.39,1.69,0.29,2.17c0.62,0.44,1.84,0.3,2.03-0.36c-0.14-0.12-0.28-0.26-0.42-0.38
		c-0.53,0.36-0.94,0.38-1.22,0.06c-0.3-0.34-0.31-0.75-0.03-1.1c0.27-0.33,0.65-0.34,1.21-0.01C17.38,23.61,17.54,23.47,17.72,23.31
		z M22.53,14.65c0-1.51,0-3,0-4.54c-0.17,0.03-0.31,0.06-0.46,0.09c0.06,0.51,0.13,0.96,0.18,1.42c0.02,0.15,0.07,0.4,0.01,0.44
		c-0.32,0.19-0.18,0.48-0.2,0.73c-0.02,0.4,0.02,0.81-0.02,1.2c-0.01,0.13-0.17,0.3-0.3,0.34c-0.8,0.26-1.63,0.44-2.4,0.76
		c-0.61,0.25-1.14,0.68-1.48,1.29C19.28,15.46,20.82,14.84,22.53,14.65z M25.35,25.7c0-1.32,0-2.6,0-3.88c-0.29,0-0.54,0-0.8,0
		c0,1.31,0,2.58,0,3.88C24.82,25.7,25.06,25.7,25.35,25.7z M28.91,22.91c0,0.94,0,1.86,0,2.79c0.27,0,0.51,0,0.75,0
		c0.03-0.49,0.02-0.96,0.11-1.4c0.04-0.22,0.25-0.52,0.44-0.56c0.6-0.13,0.48-0.51,0.4-1.02c-0.34,0.17-0.62,0.32-0.9,0.46
		C29.63,22.79,29.59,22.77,28.91,22.91z M10.56,22.87c0,0.96,0,1.88,0,2.83c0.26,0,0.5,0,0.74,0c0-0.96,0-1.89,0-2.84
		c-0.14-0.01-0.25-0.02-0.36-0.02C10.84,22.85,10.73,22.86,10.56,22.87z M12.73,18.3c-1.07-1.16-2.18-2.37-3.25-3.54
		C10.02,16.43,11.14,17.63,12.73,18.3z M18.42,2.29c-0.61-0.12-0.85-0.53-1.05-1.04c-0.09,0.6-0.46,0.88-1.01,1.04
		c0.58,0.12,0.89,0.48,1.04,1.02C17.55,2.77,17.84,2.42,18.42,2.29z M10.95,22.73c0.22-0.3,0.47-0.49,0.45-0.65
		c-0.02-0.17-0.31-0.46-0.44-0.44c-0.19,0.03-0.44,0.26-0.49,0.45C10.44,22.22,10.71,22.43,10.95,22.73z M21.21,2.8
		c0.05,0.06,0.11,0.12,0.16,0.18c-0.19-0.2-0.38-0.4-0.57-0.6c0.12,0.1,0.24,0.21,0.36,0.31c-0.27,0.14-0.54,0.28-0.81,0.42
		c0.03-0.12,0.07-0.23,0.1-0.35c0.2,0.2,0.4,0.4,0.6,0.61c-0.14,0-0.28,0.01-0.42,0.01C20.82,3.19,21.01,3,21.21,2.8z M14.35,2.79
		c0.02,0.11,0.04,0.21,0.05,0.32c-0.22-0.19-0.43-0.37-0.65-0.56c0.17,0.06,0.35,0.13,0.52,0.19c-0.28,0.11-0.57,0.23-0.79,0.31
		c0.1,0.11,0.29,0.3,0.48,0.5c-0.07-0.05-0.15-0.1-0.22-0.16C13.95,3.2,14.15,2.99,14.35,2.79z M17.48,27.19
		c-0.04,0.02-0.08,0.03-0.12,0.05c0.1,0.26,0.19,0.53,0.32,0.89c0.13-0.24,0.2-0.36,0.28-0.5c0.12,0.17,0.21,0.29,0.35,0.49
		c0.1-0.35,0.18-0.62,0.26-0.88c-0.04-0.01-0.07-0.02-0.11-0.03c-0.06,0.16-0.13,0.33-0.21,0.54c-0.09-0.23-0.16-0.4-0.27-0.65
		c-0.12,0.27-0.2,0.44-0.29,0.63C17.62,27.52,17.55,27.36,17.48,27.19z M10.43,27.09c0,0.42,0,0.67,0,1.02
		c0.1-0.18,0.15-0.26,0.21-0.36c0.12,0.11,0.22,0.21,0.33,0.31c0.03-0.24,0.14-0.49,0.07-0.64C10.96,27.27,10.69,27.22,10.43,27.09z
		 M4.3,27.61c1.41,0.22,2.1,0.19,2.24,0C5.79,27.61,5.05,27.61,4.3,27.61z M12.08,28.09c0-0.35,0-0.6,0-0.86c-0.02,0-0.05,0-0.07,0
		c-0.03,0.13-0.05,0.27-0.08,0.43c-0.18-0.19-0.33-0.35-0.53-0.56c0,0.37,0,0.62,0,0.88c0.03,0,0.05,0,0.08,0
		c0.03-0.13,0.05-0.27,0.09-0.44C11.75,27.74,11.89,27.89,12.08,28.09z M15.31,27.23c0,0.24,0,0.49,0,0.82
		c0.1-0.16,0.15-0.24,0.21-0.33c0.12,0.11,0.22,0.2,0.35,0.32C15.86,27.62,16.18,27.01,15.31,27.23z M17.17,27.7
		c0-0.07,0-0.13,0-0.2c-0.17-0.11-0.35-0.32-0.5-0.29c-0.17,0.03-0.3,0.26-0.45,0.4c0.16,0.15,0.3,0.39,0.48,0.43
		C16.82,28.07,17.01,27.82,17.17,27.7z M24.36,27.23c0,0.28,0,0.54,0,0.84c0.21-0.01,0.38-0.02,0.55-0.03c0-0.03,0-0.06,0-0.08
		c-0.14-0.04-0.27-0.08-0.47-0.14c0.19-0.09,0.3-0.13,0.44-0.2c-0.16-0.06-0.27-0.1-0.39-0.14c0.01-0.03,0.01-0.05,0.02-0.08
		c0.13-0.03,0.27-0.06,0.4-0.08c0-0.03,0-0.05,0-0.08C24.74,27.23,24.56,27.23,24.36,27.23z M14.77,27.82
		c-0.04,0.05-0.09,0.09-0.13,0.14c-0.1-0.11-0.2-0.22-0.29-0.32c0.15-0.13,0.3-0.27,0.55-0.49c-0.28,0.08-0.53,0.08-0.64,0.21
		c-0.09,0.1-0.07,0.4,0.02,0.53c0.07,0.11,0.32,0.14,0.48,0.13c0.07,0,0.15-0.19,0.17-0.31c0.01-0.03-0.16-0.1-0.25-0.15
		c-0.02,0.02-0.03,0.05-0.05,0.07C14.67,27.69,14.72,27.76,14.77,27.82z M30.26,27.77c0-0.04,0-0.08,0-0.12
		c-0.77-0.03-1.54-0.07-2.4-0.11c0.1,0.16,0.13,0.22,0.15,0.22C28.76,27.77,29.51,27.77,30.26,27.77z M8.99,27.63
		c-0.22-0.08-0.33-0.12-0.56-0.19c0.24-0.07,0.36-0.1,0.48-0.14c-0.01-0.02-0.01-0.05-0.02-0.07c-0.17,0-0.33,0-0.5,0
		c0,0.29,0,0.55,0,0.84c0.2-0.02,0.37-0.03,0.54-0.04c0-0.02,0-0.04-0.01-0.07c-0.12-0.04-0.25-0.09-0.49-0.17
		C8.66,27.72,8.77,27.69,8.99,27.63z M10.05,27.93c-0.1-0.23-0.22-0.5-0.35-0.77c-0.05,0.01-0.09,0.01-0.14,0.02
		c-0.1,0.27-0.21,0.53-0.3,0.75C9.53,27.93,9.75,27.93,10.05,27.93z M21.06,27.18c-0.05,0-0.1,0-0.14,0.01
		c-0.11,0.26-0.23,0.52-0.32,0.73c0.29,0,0.54,0,0.79,0C21.29,27.69,21.18,27.43,21.06,27.18z M26.89,27.32c0-0.03,0-0.05,0-0.08
		c-0.19,0-0.37,0-0.58,0c0,0.26,0,0.49,0,0.76c0.19,0,0.35,0,0.52,0c0-0.01,0.01-0.03,0.01-0.04c-0.12-0.03-0.24-0.07-0.47-0.13
		c0.23-0.09,0.35-0.14,0.51-0.2c-0.17-0.07-0.29-0.12-0.5-0.22C26.63,27.36,26.76,27.34,26.89,27.32z M23.4,27.21
		c-0.13,0.14-0.24,0.32-0.29,0.31c-0.13-0.04-0.23-0.16-0.36-0.26c0,0.25,0,0.5,0,0.91c0.2-0.53,0.39-0.59,0.65-0.1
		C23.4,27.72,23.4,27.48,23.4,27.21z M25.54,28.07c0.04,0,0.08,0,0.12,0c0.11-0.28,0.22-0.55,0.32-0.83
		c-0.04-0.01-0.07-0.03-0.11-0.04c-0.09,0.17-0.18,0.33-0.29,0.54c-0.11-0.21-0.19-0.37-0.28-0.52c-0.03,0.02-0.07,0.03-0.1,0.05
		C25.32,27.54,25.43,27.8,25.54,28.07z M22.29,27.22c-0.18-0.09-0.42-0.09-0.54,0.16c-0.07,0.14-0.04,0.41,0.06,0.52
		c0.11,0.11,0.34,0.1,0.53,0.15c-0.01-0.03-0.01-0.06-0.02-0.08c-0.16-0.1-0.33-0.21-0.49-0.31C21.97,27.52,22.12,27.38,22.29,27.22
		z"/>
	<g>
		<path class="st1" d="M9.39,6.53c0,2.13,0,4.21,0,6.43C8.11,10.58,8.47,8.14,8.42,5.7c1.06-0.23,2.11-0.47,3.15-0.69
			c1.34-0.29,2.7-0.52,4.02-0.87c0.72-0.19,1.37-0.09,2.05,0.06c2.21,0.48,4.43,0.94,6.64,1.43C24.4,5.67,24.57,5.87,24.57,6
			c-0.01,2.65,0.03,5.3-0.08,7.95c-0.06,1.37-0.76,2.54-1.63,3.59c-1.13,1.36-2.6,2.28-4.11,3.15c-0.64,0.37-1.29,0.73-1.95,1.07
			c-0.14,0.07-0.37,0.11-0.49,0.05c-2.31-1.23-4.62-2.48-6.3-4.56c-1.33-1.65-2.05-3.55-2.06-5.7c0.48,2.44,1.57,4.57,3.55,6.08
			c1.4,1.07,2.96,1.92,4.43,2.89c0.39,0.26,0.71,0.25,1.12,0.01c1.53-0.89,3.11-1.68,4.4-2.93c1.35-1.31,2.16-2.85,2.14-4.79
			c-0.02-1.96-0.01-3.91,0-5.87c0-0.31-0.07-0.49-0.4-0.56c-1.65-0.33-3.32-0.6-4.94-1.05c-1.28-0.36-2.49-0.25-3.74,0.04
			c-1.58,0.37-3.17,0.68-4.75,1.02C9.65,6.43,9.54,6.48,9.39,6.53z"/>
		<path class="st1" d="M11.61,7.71c1.11-0.38,2.21-0.75,3.31-1.13c0.17-0.06,0.35-0.1,0.51-0.18c0.79-0.4,1.53-0.23,2.32,0.07
			c1.2,0.46,2.43,0.84,3.67,1.26c-0.41,0.3-0.56,1.28-0.34,1.74c0.09,0.19,0.07,0.44,0.09,0.67c0.04,0.55,0.07,1.11,0.12,1.66
			c0.01,0.16,0.05,0.32,0.08,0.53c-0.36,0-0.7,0-1.09,0c0.07-0.58,0.15-1.14,0.21-1.71c0.02-0.19-0.03-0.38-0.05-0.57
			c-0.01-0.13-0.04-0.26-0.01-0.38c0.1-0.48,0.22-0.95,0.33-1.42c-0.06-0.03-0.11-0.07-0.17-0.1c-0.72,0.26-1.43,0.52-2.15,0.78
			c-0.57,0.21-1.14,0.44-1.71,0.64c-0.14,0.05-0.33,0.06-0.47,0.01c-1.55-0.57-3.1-1.16-4.65-1.75C11.61,7.79,11.61,7.75,11.61,7.71
			z"/>
		<path class="st1" d="M16.25,16.7c-1.29-1.17-2.71-1.78-4.31-2.02c0-1.46,0-2.91,0-4.4c1.53,0.27,2.93,0.74,4.09,1.76
			c0.11,0.1,0.21,0.27,0.21,0.42C16.26,13.83,16.25,15.2,16.25,16.7z"/>
		<path class="st1" d="M20.15,10.47c-0.1,0.77-0.2,1.49-0.3,2.26c0.4,0,0.77,0,1.19,0c0,0.68,0,1.31,0,1.98
			c-1.58,0.21-2.97,0.83-4.22,1.93c-0.02-0.16-0.04-0.27-0.04-0.37c0-1.23-0.02-2.45,0.01-3.68c0-0.21,0.13-0.48,0.29-0.62
			C17.94,11.21,18.97,10.8,20.15,10.47z"/>
		<path class="st1" d="M20.75,17.73c-1.6,1.29-3.42,1.73-5.43,1.35c-3.82-0.73-6.44-3.87-7.07-7.63c-0.04-0.24-0.03-0.49-0.02-0.73
			C9.5,16.86,15.67,19.99,20.75,17.73z"/>
		<path class="st1" d="M13.57,23.61c-0.16,0.25-0.29,0.45-0.41,0.64c-0.35-0.13-0.66-0.31-0.97-0.33c-0.22-0.01-0.58,0.14-0.67,0.31
			c-0.16,0.33,0.2,0.42,0.44,0.51c0.28,0.1,0.57,0.15,0.85,0.25c0.65,0.23,0.9,0.59,0.87,1.22c-0.03,0.55-0.37,0.99-0.97,1.1
			c-0.83,0.16-1.61,0.03-2.3-0.59c0.17-0.21,0.32-0.41,0.4-0.51c0.56,0.13,1.02,0.28,1.49,0.34c0.14,0.02,0.32-0.21,0.48-0.32
			c-0.12-0.16-0.21-0.38-0.36-0.45c-0.39-0.17-0.81-0.26-1.21-0.41c-0.48-0.18-0.67-0.56-0.64-1.06c0.03-0.5,0.28-0.83,0.73-1.02
			C12.09,22.95,12.8,23.15,13.57,23.61z"/>
		<path class="st1" d="M13.48,9.05c0.71,0.27,1.38,0.47,1.99,0.77c0.77,0.39,1.45,0.31,2.19-0.06c0.57-0.28,1.19-0.46,1.86-0.71
			c0,0.33,0.02,0.61-0.01,0.88c-0.01,0.11-0.12,0.26-0.23,0.31c-0.86,0.41-1.73,0.81-2.61,1.19c-0.12,0.05-0.31,0.02-0.43-0.04
			c-0.77-0.34-1.52-0.72-2.3-1.03c-0.36-0.14-0.53-0.32-0.47-0.71C13.5,9.48,13.48,9.3,13.48,9.05z"/>
		<path class="st1" d="M18.08,27.3c-0.33,0-0.59,0-0.87,0c0-1.4,0-2.78,0-4.19c0.29,0,0.54,0,0.85,0c0,0.47,0,0.92,0,1.32
			c0.42-0.08,0.79-0.21,1.16-0.21c0.47,0,0.79,0.32,0.82,0.77c0.05,0.75,0.01,1.51,0.01,2.3c-0.27,0-0.51,0-0.8,0
			c0-0.55,0.03-1.08-0.02-1.6c-0.02-0.23-0.15-0.54-0.33-0.66c-0.38-0.25-0.79,0.02-0.82,0.51C18.05,26.11,18.08,26.67,18.08,27.3z"
			/>
		<path class="st1" d="M23.74,25.78c0.13,0.79-0.77,1.65-1.68,1.6c-0.96-0.06-1.61-0.68-1.6-1.63c0.01-0.94,0.68-1.54,1.66-1.57
			C22.98,24.16,23.87,24.93,23.74,25.78z M22.11,26.61c0.48,0,0.77-0.31,0.78-0.82c0.01-0.51-0.33-0.87-0.8-0.86
			c-0.45,0.01-0.78,0.36-0.79,0.83C21.3,26.26,21.63,26.61,22.11,26.61z"/>
		<path class="st1" d="M28.33,27.36c-0.37-0.06-0.66-0.1-1.09-0.17c-0.42,0.25-1.01,0.35-1.54-0.13c-0.3-0.27-0.37-0.65-0.19-1
			c0.42-0.82,1.18-0.67,1.91-0.57c-0.06-0.59-0.24-0.64-1.47-0.47c-0.35-0.54-0.3-0.66,0.31-0.76c0.29-0.05,0.59-0.07,0.89-0.05
			c0.7,0.04,1.09,0.42,1.16,1.12c0.02,0.21,0.02,0.43,0.02,0.64C28.33,26.4,28.33,26.83,28.33,27.36z M26.9,25.79
			c-0.25,0.24-0.52,0.38-0.57,0.58c-0.07,0.29,0.18,0.42,0.47,0.4c0.34-0.02,0.66-0.12,0.65-0.51C27.44,26.12,27.15,26,26.9,25.79z"
			/>
		<path class="st1" d="M8.6,27.29c-0.28,0-0.52,0-0.84,0c0-0.51,0.01-1,0-1.49c-0.01-0.64-0.16-0.85-0.59-0.83
			C6.62,25,6.61,25.39,6.61,25.79c0,0.48,0,0.96,0,1.48c-0.29,0-0.56,0-0.86,0c0-0.99,0-1.97,0-3c0.33-0.02,0.68-0.23,0.89,0.15
			c0.34-0.08,0.67-0.21,1.01-0.22c0.51-0.02,0.91,0.33,0.93,0.84C8.63,25.78,8.6,26.52,8.6,27.29z"/>
		<path class="st1" d="M2.27,24.25c0.31,0,0.56,0,0.87,0c0,0.56,0,1.1,0,1.64c0,0.37,0.07,0.66,0.52,0.69
			c0.46,0.03,0.64-0.25,0.66-0.63c0.03-0.54,0.01-1.09,0.01-1.68c0.27,0,0.51,0,0.79,0c0,1,0,2,0,3.04
			c-0.29-0.07-0.69,0.25-0.83-0.3c-0.18,0.1-0.35,0.24-0.54,0.31c-0.69,0.25-1.38-0.14-1.46-0.9C2.22,25.71,2.27,25,2.27,24.25z"/>
		<path class="st1" d="M10.96,10.59c0.2,0.03,0.35,0.06,0.54,0.09c0,1.46,0,2.9,0,4.37c1.81,0.22,3.41,0.81,4.56,2.29
			c-1.56-0.99-3.23-1.7-5.11-1.89C10.96,13.82,10.96,12.23,10.96,10.59z"/>
		<path class="st1" d="M16.86,24.73c-0.2,0.17-0.37,0.32-0.54,0.47c-0.6-0.35-1.02-0.35-1.3,0.01c-0.3,0.37-0.29,0.81,0.03,1.18
			c0.3,0.34,0.74,0.32,1.31-0.07c0.15,0.14,0.3,0.28,0.45,0.41c-0.2,0.7-1.51,0.85-2.18,0.38c-0.73-0.51-0.89-1.62-0.31-2.33
			C14.92,24.03,16.05,23.97,16.86,24.73z"/>
		<path class="st1" d="M22.02,15.44c-1.83,0.2-3.48,0.86-5.01,1.86c0.37-0.66,0.93-1.12,1.59-1.38c0.83-0.34,1.72-0.53,2.57-0.81
			c0.14-0.05,0.31-0.23,0.32-0.37c0.04-0.43,0-0.86,0.03-1.29c0.01-0.27-0.14-0.58,0.21-0.78c0.07-0.04,0.01-0.31-0.01-0.47
			c-0.06-0.49-0.12-0.98-0.19-1.53c0.16-0.03,0.31-0.06,0.49-0.09C22.02,12.23,22.02,13.82,22.02,15.44z"/>
		<path class="st1" d="M25.04,27.29c-0.31,0-0.57,0-0.86,0c0-1.4,0-2.76,0-4.16c0.28,0,0.55,0,0.86,0
			C25.04,24.5,25.04,25.88,25.04,27.29z"/>
		<path class="st1" d="M28.86,24.3c0.72-0.16,0.77-0.14,0.87,0.29c0.3-0.15,0.6-0.31,0.96-0.49c0.08,0.55,0.21,0.95-0.43,1.09
			c-0.2,0.04-0.42,0.37-0.47,0.6c-0.1,0.48-0.08,0.98-0.12,1.5c-0.26,0-0.52,0-0.81,0C28.86,26.29,28.86,25.31,28.86,24.3z"/>
		<path class="st1" d="M9.18,24.26c0.18-0.01,0.29-0.03,0.41-0.03c0.11,0,0.23,0.01,0.38,0.02c0,1.01,0,2.01,0,3.04
			c-0.25,0-0.51,0-0.79,0C9.18,26.27,9.18,25.29,9.18,24.26z"/>
		<path class="st1" d="M11.51,19.35c-1.71-0.72-2.91-2.01-3.49-3.8C9.18,16.81,10.36,18.1,11.51,19.35z"/>
		<path class="st1" d="M17.6,2.19c-0.61,0.13-0.93,0.51-1.1,1.1c-0.16-0.58-0.49-0.96-1.11-1.09c0.59-0.17,0.99-0.48,1.09-1.12
			C16.69,1.62,16.95,2.06,17.6,2.19z"/>
		<path class="st1" d="M23.01,3.54c-0.42,0.09-0.63,0.35-0.75,0.75c-0.11-0.39-0.33-0.65-0.75-0.74c0.4-0.12,0.67-0.32,0.74-0.76
			C22.39,3.16,22.57,3.46,23.01,3.54z"/>
		<path class="st1" d="M11.56,3.54c-0.42,0.09-0.63,0.35-0.75,0.75c-0.11-0.39-0.33-0.65-0.75-0.74c0.4-0.12,0.67-0.32,0.74-0.76
			C10.94,3.16,11.12,3.46,11.56,3.54z"/>
		<path class="st1" d="M9.6,24.1c-0.26-0.32-0.56-0.54-0.52-0.68c0.06-0.21,0.32-0.45,0.53-0.49c0.14-0.02,0.44,0.28,0.47,0.47
			C10.1,23.57,9.84,23.77,9.6,24.1z"/>
		<circle class="st1" cx="34.52" cy="55.76" r="0.5"/>
		<g>
			<g>
				<path class="st1" d="M8.53,28.22h0.18v0.85h0.41v0.15h-0.6V28.22z"/>
				<path class="st1" d="M9.84,28.78H9.46v0.3h0.42v0.15H9.27v-1.01h0.59v0.15h-0.4v0.26h0.38V28.78z"/>
				<path class="st1" d="M10.25,28.94l-0.09,0.29H9.97l0.32-1.01h0.23l0.33,1.01h-0.2l-0.09-0.29H10.25z M10.54,28.81l-0.08-0.25
					c-0.02-0.06-0.04-0.13-0.05-0.19h0c-0.01,0.06-0.03,0.13-0.05,0.19l-0.08,0.25H10.54z"/>
				<path class="st1" d="M11,28.24c0.07-0.01,0.17-0.02,0.28-0.02c0.14,0,0.24,0.02,0.31,0.08c0.06,0.05,0.09,0.12,0.09,0.2
					c0,0.13-0.09,0.22-0.18,0.25v0c0.07,0.03,0.12,0.1,0.14,0.2c0.03,0.13,0.06,0.24,0.08,0.28h-0.19
					c-0.02-0.03-0.04-0.11-0.07-0.24c-0.03-0.13-0.08-0.17-0.18-0.18h-0.09v0.41H11V28.24z M11.18,28.68h0.11
					c0.12,0,0.2-0.07,0.2-0.17c0-0.11-0.08-0.16-0.2-0.16c-0.06,0-0.1,0-0.11,0.01V28.68z"/>
				<path class="st1" d="M11.85,29.23v-1.01h0.21l0.26,0.43c0.07,0.11,0.12,0.23,0.17,0.34l0,0c-0.01-0.13-0.02-0.26-0.02-0.42
					v-0.35h0.17v1.01h-0.19l-0.26-0.44c-0.06-0.11-0.13-0.23-0.18-0.35l0,0c0.01,0.13,0.01,0.26,0.01,0.43v0.36H11.85z"/>
				<path class="st1" d="M13.15,29.13c0-0.07,0.05-0.12,0.11-0.12s0.11,0.05,0.11,0.12c0,0.07-0.05,0.12-0.11,0.12
					C13.19,29.25,13.15,29.2,13.15,29.13z"/>
				<path class="st1" d="M14.65,29.18c-0.06,0.02-0.19,0.06-0.32,0.06c-0.17,0-0.3-0.04-0.4-0.13c-0.09-0.09-0.14-0.22-0.14-0.37
					c0-0.32,0.23-0.52,0.56-0.52c0.12,0,0.22,0.03,0.27,0.05l-0.04,0.15c-0.05-0.02-0.12-0.04-0.23-0.04
					c-0.21,0-0.37,0.13-0.37,0.36c0,0.23,0.14,0.36,0.35,0.36c0.07,0,0.12-0.01,0.14-0.02v-0.25h-0.18v-0.14h0.36V29.18z"/>
				<path class="st1" d="M14.84,28.24c0.07-0.01,0.17-0.02,0.28-0.02c0.14,0,0.24,0.02,0.31,0.08c0.06,0.05,0.09,0.12,0.09,0.2
					c0,0.13-0.09,0.22-0.18,0.25v0c0.07,0.03,0.12,0.1,0.14,0.2c0.03,0.13,0.06,0.24,0.08,0.28h-0.19
					c-0.02-0.03-0.04-0.11-0.07-0.24c-0.03-0.13-0.08-0.17-0.18-0.18h-0.09v0.41h-0.18V28.24z M15.02,28.68h0.11
					c0.12,0,0.2-0.07,0.2-0.17c0-0.11-0.08-0.16-0.2-0.16c-0.06,0-0.1,0-0.11,0.01V28.68z"/>
				<path class="st1" d="M16.59,28.71c0,0.34-0.2,0.53-0.48,0.53c-0.28,0-0.46-0.22-0.46-0.51c0-0.31,0.2-0.53,0.48-0.53
					C16.42,28.21,16.59,28.43,16.59,28.71z M15.84,28.73c0,0.21,0.1,0.37,0.28,0.37c0.18,0,0.28-0.17,0.28-0.38
					c0-0.19-0.09-0.37-0.28-0.37C15.93,28.35,15.84,28.52,15.84,28.73z"/>
				<path class="st1" d="M16.91,29.23l-0.25-1.01h0.2l0.1,0.46c0.02,0.12,0.05,0.25,0.07,0.35h0c0.02-0.11,0.04-0.23,0.07-0.35
					l0.11-0.46h0.19l0.1,0.46c0.03,0.12,0.05,0.23,0.06,0.34h0c0.02-0.11,0.04-0.23,0.07-0.35l0.11-0.46h0.19l-0.27,1.01h-0.2
					l-0.1-0.47c-0.03-0.11-0.04-0.21-0.06-0.32h0c-0.02,0.11-0.04,0.21-0.07,0.32l-0.12,0.47H16.91z"/>
				<path class="st1" d="M18.33,29.13c0-0.07,0.05-0.12,0.11-0.12c0.07,0,0.11,0.05,0.11,0.12c0,0.07-0.05,0.12-0.11,0.12
					C18.38,29.25,18.33,29.2,18.33,29.13z"/>
				<path class="st1" d="M19.23,28.94l-0.09,0.29h-0.19l0.32-1.01h0.24l0.33,1.01h-0.2l-0.09-0.29H19.23z M19.52,28.81l-0.08-0.25
					c-0.02-0.06-0.04-0.13-0.05-0.19h0c-0.01,0.06-0.03,0.13-0.05,0.19l-0.08,0.25H19.52z"/>
				<path class="st1" d="M20.71,29.2c-0.04,0.02-0.14,0.05-0.26,0.05c-0.32,0-0.51-0.2-0.51-0.51c0-0.33,0.23-0.53,0.54-0.53
					c0.12,0,0.21,0.02,0.24,0.04l-0.04,0.15c-0.05-0.02-0.11-0.04-0.2-0.04c-0.21,0-0.35,0.13-0.35,0.37c0,0.22,0.13,0.36,0.35,0.36
					c0.08,0,0.15-0.01,0.2-0.04L20.71,29.2z"/>
				<path class="st1" d="M21.05,28.22v0.4h0.43v-0.4h0.18v1.01h-0.18v-0.45h-0.43v0.45h-0.18v-1.01H21.05z"/>
				<path class="st1" d="M22.06,28.22v1.01h-0.18v-1.01H22.06z"/>
				<path class="st1" d="M22.83,28.78h-0.38v0.3h0.42v0.15h-0.61v-1.01h0.59v0.15h-0.4v0.26h0.38V28.78z"/>
				<path class="st1" d="M23.27,29.23l-0.33-1.01h0.2l0.14,0.46c0.04,0.13,0.07,0.25,0.1,0.37h0c0.03-0.12,0.06-0.24,0.1-0.36
					l0.15-0.46h0.2l-0.35,1.01H23.27z"/>
				<path class="st1" d="M24.51,28.78h-0.38v0.3h0.42v0.15h-0.61v-1.01h0.59v0.15h-0.4v0.26h0.38V28.78z"/>
			</g>
		</g>
	</g>
</g>
<g>
	<path class="st1" d="M8.16,28.73c-0.94,0-1.88,0-2.82,0"/>
</g>
<g>
	<path class="st1" d="M24.84,28.73c0.94,0,1.88,0,2.82,0"/>
</g>
</svg>
